<?xml version="1.0" encoding="utf-8"?>
<svg xmlns="http://www.w3.org/2000/svg" xmlns:xlink="http://www.w3.org/1999/xlink" width="700" height="500" viewBox="0 0 2800 2000">
<defs>
  <clipPath id="clip120">
    <rect x="0" y="0" width="2800" height="2000"/>
  </clipPath>
</defs>
<path clip-path="url(#clip120)" d="M0 2000 L2800 2000 L2800 0 L0 0  Z" fill="#ffffff" fill-rule="evenodd" fill-opacity="1"/>
<defs>
  <clipPath id="clip121">
    <rect x="560" y="0" width="1961" height="1961"/>
  </clipPath>
</defs>
<path clip-path="url(#clip120)" d="M318.524 1734.58 L2674.02 1734.58 L2674.02 125.984 L318.524 125.984  Z" fill="#ffffff" fill-rule="evenodd" fill-opacity="1"/>
<defs>
  <clipPath id="clip122">
    <rect x="318" y="125" width="2356" height="1610"/>
  </clipPath>
</defs>
<polyline clip-path="url(#clip122)" style="stroke:#000000; stroke-linecap:round; stroke-linejoin:round; stroke-width:2; stroke-opacity:0.1; fill:none" points="702.64,1734.58 702.64,125.984 "/>
<polyline clip-path="url(#clip122)" style="stroke:#000000; stroke-linecap:round; stroke-linejoin:round; stroke-width:2; stroke-opacity:0.1; fill:none" points="1099.46,1734.58 1099.46,125.984 "/>
<polyline clip-path="url(#clip122)" style="stroke:#000000; stroke-linecap:round; stroke-linejoin:round; stroke-width:2; stroke-opacity:0.1; fill:none" points="1496.27,1734.58 1496.27,125.984 "/>
<polyline clip-path="url(#clip122)" style="stroke:#000000; stroke-linecap:round; stroke-linejoin:round; stroke-width:2; stroke-opacity:0.1; fill:none" points="1893.08,1734.58 1893.08,125.984 "/>
<polyline clip-path="url(#clip122)" style="stroke:#000000; stroke-linecap:round; stroke-linejoin:round; stroke-width:2; stroke-opacity:0.1; fill:none" points="2289.9,1734.58 2289.9,125.984 "/>
<polyline clip-path="url(#clip120)" style="stroke:#000000; stroke-linecap:round; stroke-linejoin:round; stroke-width:4; stroke-opacity:1; fill:none" points="318.524,1734.58 2674.02,1734.58 "/>
<polyline clip-path="url(#clip120)" style="stroke:#000000; stroke-linecap:round; stroke-linejoin:round; stroke-width:4; stroke-opacity:1; fill:none" points="702.64,1734.58 702.64,1715.68 "/>
<polyline clip-path="url(#clip120)" style="stroke:#000000; stroke-linecap:round; stroke-linejoin:round; stroke-width:4; stroke-opacity:1; fill:none" points="1099.46,1734.58 1099.46,1715.68 "/>
<polyline clip-path="url(#clip120)" style="stroke:#000000; stroke-linecap:round; stroke-linejoin:round; stroke-width:4; stroke-opacity:1; fill:none" points="1496.27,1734.58 1496.27,1715.68 "/>
<polyline clip-path="url(#clip120)" style="stroke:#000000; stroke-linecap:round; stroke-linejoin:round; stroke-width:4; stroke-opacity:1; fill:none" points="1893.08,1734.58 1893.08,1715.68 "/>
<polyline clip-path="url(#clip120)" style="stroke:#000000; stroke-linecap:round; stroke-linejoin:round; stroke-width:4; stroke-opacity:1; fill:none" points="2289.9,1734.58 2289.9,1715.68 "/>
<path clip-path="url(#clip120)" d="M702.64 1768.7 Q699.029 1768.7 697.201 1772.26 Q695.395 1775.8 695.395 1782.93 Q695.395 1790.04 697.201 1793.6 Q699.029 1797.14 702.64 1797.14 Q706.275 1797.14 708.08 1793.6 Q709.909 1790.04 709.909 1782.93 Q709.909 1775.8 708.08 1772.26 Q706.275 1768.7 702.64 1768.7 M702.64 1764.99 Q708.451 1764.99 711.506 1769.6 Q714.585 1774.18 714.585 1782.93 Q714.585 1791.66 711.506 1796.26 Q708.451 1800.85 702.64 1800.85 Q696.83 1800.85 693.752 1796.26 Q690.696 1791.66 690.696 1782.93 Q690.696 1774.18 693.752 1769.6 Q696.83 1764.99 702.64 1764.99 Z" fill="#000000" fill-rule="nonzero" fill-opacity="1" /><path clip-path="url(#clip120)" d="M1089.73 1765.62 L1108.09 1765.62 L1108.09 1769.55 L1094.02 1769.55 L1094.02 1778.02 Q1095.03 1777.68 1096.05 1777.51 Q1097.07 1777.33 1098.09 1777.33 Q1103.88 1777.33 1107.26 1780.5 Q1110.64 1783.67 1110.64 1789.09 Q1110.64 1794.67 1107.16 1797.77 Q1103.69 1800.85 1097.37 1800.85 Q1095.2 1800.85 1092.93 1800.48 Q1090.68 1800.11 1088.27 1799.37 L1088.27 1794.67 Q1090.36 1795.8 1092.58 1796.36 Q1094.8 1796.91 1097.28 1796.91 Q1101.28 1796.91 1103.62 1794.81 Q1105.96 1792.7 1105.96 1789.09 Q1105.96 1785.48 1103.62 1783.37 Q1101.28 1781.26 1097.28 1781.26 Q1095.4 1781.26 1093.53 1781.68 Q1091.68 1782.1 1089.73 1782.98 L1089.73 1765.62 Z" fill="#000000" fill-rule="nonzero" fill-opacity="1" /><path clip-path="url(#clip120)" d="M1470.96 1796.24 L1478.6 1796.24 L1478.6 1769.88 L1470.29 1771.54 L1470.29 1767.28 L1478.55 1765.62 L1483.23 1765.62 L1483.23 1796.24 L1490.86 1796.24 L1490.86 1800.18 L1470.96 1800.18 L1470.96 1796.24 Z" fill="#000000" fill-rule="nonzero" fill-opacity="1" /><path clip-path="url(#clip120)" d="M1510.31 1768.7 Q1506.7 1768.7 1504.87 1772.26 Q1503.06 1775.8 1503.06 1782.93 Q1503.06 1790.04 1504.87 1793.6 Q1506.7 1797.14 1510.31 1797.14 Q1513.94 1797.14 1515.75 1793.6 Q1517.58 1790.04 1517.58 1782.93 Q1517.58 1775.8 1515.75 1772.26 Q1513.94 1768.7 1510.31 1768.7 M1510.31 1764.99 Q1516.12 1764.99 1519.17 1769.6 Q1522.25 1774.18 1522.25 1782.93 Q1522.25 1791.66 1519.17 1796.26 Q1516.12 1800.85 1510.31 1800.85 Q1504.5 1800.85 1501.42 1796.26 Q1498.36 1791.66 1498.36 1782.93 Q1498.36 1774.18 1501.42 1769.6 Q1504.5 1764.99 1510.31 1764.99 Z" fill="#000000" fill-rule="nonzero" fill-opacity="1" /><path clip-path="url(#clip120)" d="M1868.27 1796.24 L1875.91 1796.24 L1875.91 1769.88 L1867.6 1771.54 L1867.6 1767.28 L1875.86 1765.62 L1880.54 1765.62 L1880.54 1796.24 L1888.18 1796.24 L1888.18 1800.18 L1868.27 1800.18 L1868.27 1796.24 Z" fill="#000000" fill-rule="nonzero" fill-opacity="1" /><path clip-path="url(#clip120)" d="M1897.67 1765.62 L1916.02 1765.62 L1916.02 1769.55 L1901.95 1769.55 L1901.95 1778.02 Q1902.97 1777.68 1903.99 1777.51 Q1905.01 1777.33 1906.02 1777.33 Q1911.81 1777.33 1915.19 1780.5 Q1918.57 1783.67 1918.57 1789.09 Q1918.57 1794.67 1915.1 1797.77 Q1911.63 1800.85 1905.31 1800.85 Q1903.13 1800.85 1900.86 1800.48 Q1898.62 1800.11 1896.21 1799.37 L1896.21 1794.67 Q1898.29 1795.8 1900.51 1796.36 Q1902.74 1796.91 1905.21 1796.91 Q1909.22 1796.91 1911.56 1794.81 Q1913.89 1792.7 1913.89 1789.09 Q1913.89 1785.48 1911.56 1783.37 Q1909.22 1781.26 1905.21 1781.26 Q1903.34 1781.26 1901.46 1781.68 Q1899.61 1782.1 1897.67 1782.98 L1897.67 1765.62 Z" fill="#000000" fill-rule="nonzero" fill-opacity="1" /><path clip-path="url(#clip120)" d="M2268.67 1796.24 L2284.99 1796.24 L2284.99 1800.18 L2263.05 1800.18 L2263.05 1796.24 Q2265.71 1793.49 2270.29 1788.86 Q2274.9 1784.2 2276.08 1782.86 Q2278.33 1780.34 2279.2 1778.6 Q2280.11 1776.84 2280.11 1775.15 Q2280.11 1772.4 2278.16 1770.66 Q2276.24 1768.93 2273.14 1768.93 Q2270.94 1768.93 2268.49 1769.69 Q2266.06 1770.45 2263.28 1772.01 L2263.28 1767.28 Q2266.1 1766.15 2268.56 1765.57 Q2271.01 1764.99 2273.05 1764.99 Q2278.42 1764.99 2281.61 1767.68 Q2284.81 1770.36 2284.81 1774.85 Q2284.81 1776.98 2284 1778.9 Q2283.21 1780.8 2281.1 1783.39 Q2280.52 1784.07 2277.42 1787.28 Q2274.32 1790.48 2268.67 1796.24 Z" fill="#000000" fill-rule="nonzero" fill-opacity="1" /><path clip-path="url(#clip120)" d="M2304.81 1768.7 Q2301.2 1768.7 2299.37 1772.26 Q2297.56 1775.8 2297.56 1782.93 Q2297.56 1790.04 2299.37 1793.6 Q2301.2 1797.14 2304.81 1797.14 Q2308.44 1797.14 2310.25 1793.6 Q2312.07 1790.04 2312.07 1782.93 Q2312.07 1775.8 2310.25 1772.26 Q2308.44 1768.7 2304.81 1768.7 M2304.81 1764.99 Q2310.62 1764.99 2313.67 1769.6 Q2316.75 1774.18 2316.75 1782.93 Q2316.75 1791.66 2313.67 1796.26 Q2310.62 1800.85 2304.81 1800.85 Q2299 1800.85 2295.92 1796.26 Q2292.86 1791.66 2292.86 1782.93 Q2292.86 1774.18 2295.92 1769.6 Q2299 1764.99 2304.81 1764.99 Z" fill="#000000" fill-rule="nonzero" fill-opacity="1" /><path clip-path="url(#clip120)" d="M1089.18 1837.92 L1116.49 1837.92 L1116.49 1843.33 L1095.61 1843.33 L1095.61 1857.34 L1114.45 1857.34 L1114.45 1862.75 L1095.61 1862.75 L1095.61 1885.44 L1089.18 1885.44 L1089.18 1837.92 Z" fill="#000000" fill-rule="nonzero" fill-opacity="1" /><path clip-path="url(#clip120)" d="M1126.42 1835.92 L1132.28 1835.92 L1132.28 1885.44 L1126.42 1885.44 L1126.42 1835.92 Z" fill="#000000" fill-rule="nonzero" fill-opacity="1" /><path clip-path="url(#clip120)" d="M1158.35 1853.9 Q1153.64 1853.9 1150.9 1857.59 Q1148.16 1861.25 1148.16 1867.65 Q1148.16 1874.05 1150.87 1877.74 Q1153.6 1881.4 1158.35 1881.4 Q1163.03 1881.4 1165.76 1877.71 Q1168.5 1874.01 1168.5 1867.65 Q1168.5 1861.31 1165.76 1857.62 Q1163.03 1853.9 1158.35 1853.9 M1158.35 1848.93 Q1165.99 1848.93 1170.35 1853.9 Q1174.71 1858.86 1174.71 1867.65 Q1174.71 1876.4 1170.35 1881.4 Q1165.99 1886.36 1158.35 1886.36 Q1150.68 1886.36 1146.32 1881.4 Q1141.99 1876.4 1141.99 1867.65 Q1141.99 1858.86 1146.32 1853.9 Q1150.68 1848.93 1158.35 1848.93 Z" fill="#000000" fill-rule="nonzero" fill-opacity="1" /><path clip-path="url(#clip120)" d="M1198.23 1853.9 Q1193.52 1853.9 1190.78 1857.59 Q1188.04 1861.25 1188.04 1867.65 Q1188.04 1874.05 1190.75 1877.74 Q1193.48 1881.4 1198.23 1881.4 Q1202.91 1881.4 1205.64 1877.71 Q1208.38 1874.01 1208.38 1867.65 Q1208.38 1861.31 1205.64 1857.62 Q1202.91 1853.9 1198.23 1853.9 M1198.23 1848.93 Q1205.87 1848.93 1210.23 1853.9 Q1214.59 1858.86 1214.59 1867.65 Q1214.59 1876.4 1210.23 1881.4 Q1205.87 1886.36 1198.23 1886.36 Q1190.56 1886.36 1186.2 1881.4 Q1181.87 1876.4 1181.87 1867.65 Q1181.87 1858.86 1186.2 1853.9 Q1190.56 1848.93 1198.23 1848.93 Z" fill="#000000" fill-rule="nonzero" fill-opacity="1" /><path clip-path="url(#clip120)" d="M1247.75 1855.2 L1247.75 1835.92 L1253.61 1835.92 L1253.61 1885.44 L1247.75 1885.44 L1247.75 1880.09 Q1245.91 1883.28 1243.07 1884.84 Q1240.27 1886.36 1236.33 1886.36 Q1229.86 1886.36 1225.79 1881.21 Q1221.75 1876.05 1221.75 1867.65 Q1221.75 1859.25 1225.79 1854.09 Q1229.86 1848.93 1236.33 1848.93 Q1240.27 1848.93 1243.07 1850.49 Q1245.91 1852.02 1247.75 1855.2 M1227.8 1867.65 Q1227.8 1874.11 1230.44 1877.8 Q1233.11 1881.46 1237.76 1881.46 Q1242.41 1881.46 1245.08 1877.8 Q1247.75 1874.11 1247.75 1867.65 Q1247.75 1861.19 1245.08 1857.53 Q1242.41 1853.84 1237.76 1853.84 Q1233.11 1853.84 1230.44 1857.53 Q1227.8 1861.19 1227.8 1867.65 Z" fill="#000000" fill-rule="nonzero" fill-opacity="1" /><path clip-path="url(#clip120)" d="M1293.08 1843.2 L1293.08 1880.16 L1300.84 1880.16 Q1310.68 1880.16 1315.23 1875.7 Q1319.81 1871.25 1319.81 1861.63 Q1319.81 1852.08 1315.23 1847.66 Q1310.68 1843.2 1300.84 1843.2 L1293.08 1843.2 M1286.65 1837.92 L1299.86 1837.92 Q1313.67 1837.92 1320.13 1843.68 Q1326.59 1849.41 1326.59 1861.63 Q1326.59 1873.92 1320.1 1879.68 Q1313.61 1885.44 1299.86 1885.44 L1286.65 1885.44 L1286.65 1837.92 Z" fill="#000000" fill-rule="nonzero" fill-opacity="1" /><path clip-path="url(#clip120)" d="M1367.08 1866.15 L1367.08 1869.02 L1340.15 1869.02 Q1340.53 1875.06 1343.78 1878.25 Q1347.06 1881.4 1352.88 1881.4 Q1356.26 1881.4 1359.41 1880.57 Q1362.59 1879.74 1365.71 1878.09 L1365.71 1883.63 Q1362.56 1884.96 1359.25 1885.66 Q1355.94 1886.36 1352.53 1886.36 Q1344 1886.36 1339 1881.4 Q1334.04 1876.43 1334.04 1867.97 Q1334.04 1859.21 1338.75 1854.09 Q1343.49 1848.93 1351.51 1848.93 Q1358.71 1848.93 1362.88 1853.58 Q1367.08 1858.2 1367.08 1866.15 M1361.22 1864.43 Q1361.16 1859.63 1358.52 1856.76 Q1355.91 1853.9 1351.58 1853.9 Q1346.68 1853.9 1343.72 1856.67 Q1340.79 1859.44 1340.34 1864.47 L1361.22 1864.43 Z" fill="#000000" fill-rule="nonzero" fill-opacity="1" /><path clip-path="url(#clip120)" d="M1382.36 1880.09 L1382.36 1899 L1376.47 1899 L1376.47 1849.79 L1382.36 1849.79 L1382.36 1855.2 Q1384.2 1852.02 1387 1850.49 Q1389.84 1848.93 1393.75 1848.93 Q1400.24 1848.93 1404.29 1854.09 Q1408.36 1859.25 1408.36 1867.65 Q1408.36 1876.05 1404.29 1881.21 Q1400.24 1886.36 1393.75 1886.36 Q1389.84 1886.36 1387 1884.84 Q1384.2 1883.28 1382.36 1880.09 M1402.28 1867.65 Q1402.28 1861.19 1399.61 1857.53 Q1396.96 1853.84 1392.32 1853.84 Q1387.67 1853.84 1385 1857.53 Q1382.36 1861.19 1382.36 1867.65 Q1382.36 1874.11 1385 1877.8 Q1387.67 1881.46 1392.32 1881.46 Q1396.96 1881.46 1399.61 1877.8 Q1402.28 1874.11 1402.28 1867.65 Z" fill="#000000" fill-rule="nonzero" fill-opacity="1" /><path clip-path="url(#clip120)" d="M1423.86 1839.67 L1423.86 1849.79 L1435.92 1849.79 L1435.92 1854.34 L1423.86 1854.34 L1423.86 1873.7 Q1423.86 1878.06 1425.04 1879.3 Q1426.25 1880.54 1429.91 1880.54 L1435.92 1880.54 L1435.92 1885.44 L1429.91 1885.44 Q1423.13 1885.44 1420.55 1882.93 Q1417.97 1880.38 1417.97 1873.7 L1417.97 1854.34 L1413.67 1854.34 L1413.67 1849.79 L1417.97 1849.79 L1417.97 1839.67 L1423.86 1839.67 Z" fill="#000000" fill-rule="nonzero" fill-opacity="1" /><path clip-path="url(#clip120)" d="M1473.26 1863.92 L1473.26 1885.44 L1467.4 1885.44 L1467.4 1864.12 Q1467.4 1859.05 1465.43 1856.54 Q1463.45 1854.03 1459.51 1854.03 Q1454.77 1854.03 1452.03 1857.05 Q1449.29 1860.07 1449.29 1865.29 L1449.29 1885.44 L1443.4 1885.44 L1443.4 1835.92 L1449.29 1835.92 L1449.29 1855.33 Q1451.39 1852.12 1454.22 1850.52 Q1457.09 1848.93 1460.81 1848.93 Q1466.96 1848.93 1470.11 1852.75 Q1473.26 1856.54 1473.26 1863.92 Z" fill="#000000" fill-rule="nonzero" fill-opacity="1" /><path clip-path="url(#clip120)" d="M1521.86 1867.52 Q1514.76 1867.52 1512.02 1869.14 Q1509.29 1870.77 1509.29 1874.68 Q1509.29 1877.8 1511.32 1879.65 Q1513.39 1881.46 1516.93 1881.46 Q1521.8 1881.46 1524.72 1878.02 Q1527.68 1874.56 1527.68 1868.83 L1527.68 1867.52 L1521.86 1867.52 M1533.54 1865.1 L1533.54 1885.44 L1527.68 1885.44 L1527.68 1880.03 Q1525.68 1883.28 1522.69 1884.84 Q1519.7 1886.36 1515.37 1886.36 Q1509.89 1886.36 1506.65 1883.31 Q1503.43 1880.22 1503.43 1875.06 Q1503.43 1869.05 1507.44 1865.99 Q1511.48 1862.94 1519.47 1862.94 L1527.68 1862.94 L1527.68 1862.37 Q1527.68 1858.32 1525.01 1856.13 Q1522.37 1853.9 1517.56 1853.9 Q1514.51 1853.9 1511.61 1854.63 Q1508.71 1855.36 1506.04 1856.83 L1506.04 1851.42 Q1509.26 1850.17 1512.28 1849.57 Q1515.3 1848.93 1518.17 1848.93 Q1525.9 1848.93 1529.72 1852.94 Q1533.54 1856.95 1533.54 1865.1 Z" fill="#000000" fill-rule="nonzero" fill-opacity="1" /><path clip-path="url(#clip120)" d="M1551.4 1839.67 L1551.4 1849.79 L1563.46 1849.79 L1563.46 1854.34 L1551.4 1854.34 L1551.4 1873.7 Q1551.4 1878.06 1552.57 1879.3 Q1553.78 1880.54 1557.44 1880.54 L1563.46 1880.54 L1563.46 1885.44 L1557.44 1885.44 Q1550.66 1885.44 1548.09 1882.93 Q1545.51 1880.38 1545.51 1873.7 L1545.51 1854.34 L1541.21 1854.34 L1541.21 1849.79 L1545.51 1849.79 L1545.51 1839.67 L1551.4 1839.67 Z" fill="#000000" fill-rule="nonzero" fill-opacity="1" /><path clip-path="url(#clip120)" d="M1592.14 1837.92 L1598.57 1837.92 L1598.57 1857.4 L1621.93 1857.4 L1621.93 1837.92 L1628.36 1837.92 L1628.36 1885.44 L1621.93 1885.44 L1621.93 1862.81 L1598.57 1862.81 L1598.57 1885.44 L1592.14 1885.44 L1592.14 1837.92 Z" fill="#000000" fill-rule="nonzero" fill-opacity="1" /><path clip-path="url(#clip120)" d="M1654.71 1853.9 Q1650 1853.9 1647.26 1857.59 Q1644.53 1861.25 1644.53 1867.65 Q1644.53 1874.05 1647.23 1877.74 Q1649.97 1881.4 1654.71 1881.4 Q1659.39 1881.4 1662.13 1877.71 Q1664.87 1874.01 1664.87 1867.65 Q1664.87 1861.31 1662.13 1857.62 Q1659.39 1853.9 1654.71 1853.9 M1654.71 1848.93 Q1662.35 1848.93 1666.71 1853.9 Q1671.07 1858.86 1671.07 1867.65 Q1671.07 1876.4 1666.71 1881.4 Q1662.35 1886.36 1654.71 1886.36 Q1647.04 1886.36 1642.68 1881.4 Q1638.35 1876.4 1638.35 1867.65 Q1638.35 1858.86 1642.68 1853.9 Q1647.04 1848.93 1654.71 1848.93 Z" fill="#000000" fill-rule="nonzero" fill-opacity="1" /><path clip-path="url(#clip120)" d="M1680.18 1871.37 L1680.18 1849.79 L1686.03 1849.79 L1686.03 1871.15 Q1686.03 1876.21 1688 1878.76 Q1689.98 1881.27 1693.92 1881.27 Q1698.67 1881.27 1701.4 1878.25 Q1704.17 1875.22 1704.17 1870 L1704.17 1849.79 L1710.03 1849.79 L1710.03 1885.44 L1704.17 1885.44 L1704.17 1879.97 Q1702.04 1883.21 1699.21 1884.8 Q1696.41 1886.36 1692.68 1886.36 Q1686.54 1886.36 1683.36 1882.54 Q1680.18 1878.73 1680.18 1871.37 M1694.91 1848.93 L1694.91 1848.93 Z" fill="#000000" fill-rule="nonzero" fill-opacity="1" /><path clip-path="url(#clip120)" d="M1744.82 1850.84 L1744.82 1856.38 Q1742.34 1855.11 1739.66 1854.47 Q1736.99 1853.84 1734.12 1853.84 Q1729.76 1853.84 1727.57 1855.17 Q1725.4 1856.51 1725.4 1859.18 Q1725.4 1861.22 1726.96 1862.4 Q1728.52 1863.54 1733.23 1864.59 L1735.24 1865.04 Q1741.48 1866.38 1744.09 1868.83 Q1746.73 1871.25 1746.73 1875.61 Q1746.73 1880.57 1742.78 1883.47 Q1738.87 1886.36 1731.99 1886.36 Q1729.13 1886.36 1726.01 1885.79 Q1722.92 1885.25 1719.48 1884.14 L1719.48 1878.09 Q1722.73 1879.78 1725.88 1880.63 Q1729.03 1881.46 1732.12 1881.46 Q1736.26 1881.46 1738.48 1880.06 Q1740.71 1878.63 1740.71 1876.05 Q1740.71 1873.66 1739.09 1872.39 Q1737.5 1871.12 1732.06 1869.94 L1730.02 1869.46 Q1724.58 1868.32 1722.16 1865.96 Q1719.74 1863.57 1719.74 1859.44 Q1719.74 1854.41 1723.3 1851.67 Q1726.87 1848.93 1733.42 1848.93 Q1736.67 1848.93 1739.54 1849.41 Q1742.4 1849.89 1744.82 1850.84 Z" fill="#000000" fill-rule="nonzero" fill-opacity="1" /><path clip-path="url(#clip120)" d="M1786.55 1866.15 L1786.55 1869.02 L1759.62 1869.02 Q1760 1875.06 1763.25 1878.25 Q1766.53 1881.4 1772.35 1881.4 Q1775.72 1881.4 1778.88 1880.57 Q1782.06 1879.74 1785.18 1878.09 L1785.18 1883.63 Q1782.03 1884.96 1778.72 1885.66 Q1775.41 1886.36 1772 1886.36 Q1763.47 1886.36 1758.47 1881.4 Q1753.51 1876.43 1753.51 1867.97 Q1753.51 1859.21 1758.22 1854.09 Q1762.96 1848.93 1770.98 1848.93 Q1778.18 1848.93 1782.34 1853.58 Q1786.55 1858.2 1786.55 1866.15 M1780.69 1864.43 Q1780.63 1859.63 1777.98 1856.76 Q1775.37 1853.9 1771.05 1853.9 Q1766.14 1853.9 1763.18 1856.67 Q1760.26 1859.44 1759.81 1864.47 L1780.69 1864.43 Z" fill="#000000" fill-rule="nonzero" fill-opacity="1" /><path clip-path="url(#clip120)" d="M1830.95 1835.98 Q1826.68 1843.3 1824.61 1850.46 Q1822.54 1857.62 1822.54 1864.98 Q1822.54 1872.33 1824.61 1879.55 Q1826.71 1886.75 1830.95 1894.03 L1825.85 1894.03 Q1821.08 1886.55 1818.69 1879.33 Q1816.34 1872.1 1816.34 1864.98 Q1816.34 1857.88 1818.69 1850.68 Q1821.05 1843.49 1825.85 1835.98 L1830.95 1835.98 Z" fill="#000000" fill-rule="nonzero" fill-opacity="1" /><path clip-path="url(#clip120)" d="M1860.36 1835.92 L1860.36 1840.79 L1854.75 1840.79 Q1851.6 1840.79 1850.36 1842.06 Q1849.15 1843.33 1849.15 1846.64 L1849.15 1849.79 L1858.8 1849.79 L1858.8 1854.34 L1849.15 1854.34 L1849.15 1885.44 L1843.26 1885.44 L1843.26 1854.34 L1837.66 1854.34 L1837.66 1849.79 L1843.26 1849.79 L1843.26 1847.31 Q1843.26 1841.36 1846.03 1838.65 Q1848.8 1835.92 1854.82 1835.92 L1860.36 1835.92 Z" fill="#000000" fill-rule="nonzero" fill-opacity="1" /><path clip-path="url(#clip120)" d="M1869.9 1839.67 L1869.9 1849.79 L1881.97 1849.79 L1881.97 1854.34 L1869.9 1854.34 L1869.9 1873.7 Q1869.9 1878.06 1871.08 1879.3 Q1872.29 1880.54 1875.95 1880.54 L1881.97 1880.54 L1881.97 1885.44 L1875.95 1885.44 Q1869.17 1885.44 1866.59 1882.93 Q1864.02 1880.38 1864.02 1873.7 L1864.02 1854.34 L1859.72 1854.34 L1859.72 1849.79 L1864.02 1849.79 L1864.02 1839.67 L1869.9 1839.67 Z" fill="#000000" fill-rule="nonzero" fill-opacity="1" /><path clip-path="url(#clip120)" d="M1888.75 1835.98 L1893.84 1835.98 Q1898.61 1843.49 1900.97 1850.68 Q1903.36 1857.88 1903.36 1864.98 Q1903.36 1872.1 1900.97 1879.33 Q1898.61 1886.55 1893.84 1894.03 L1888.75 1894.03 Q1892.98 1886.75 1895.05 1879.55 Q1897.15 1872.33 1897.15 1864.98 Q1897.15 1857.62 1895.05 1850.46 Q1892.98 1843.3 1888.75 1835.98 Z" fill="#000000" fill-rule="nonzero" fill-opacity="1" /><polyline clip-path="url(#clip122)" style="stroke:#000000; stroke-linecap:round; stroke-linejoin:round; stroke-width:2; stroke-opacity:0.1; fill:none" points="318.524,1689.05 2674.02,1689.05 "/>
<polyline clip-path="url(#clip122)" style="stroke:#000000; stroke-linecap:round; stroke-linejoin:round; stroke-width:2; stroke-opacity:0.1; fill:none" points="318.524,1309.67 2674.02,1309.67 "/>
<polyline clip-path="url(#clip122)" style="stroke:#000000; stroke-linecap:round; stroke-linejoin:round; stroke-width:2; stroke-opacity:0.1; fill:none" points="318.524,930.281 2674.02,930.281 "/>
<polyline clip-path="url(#clip122)" style="stroke:#000000; stroke-linecap:round; stroke-linejoin:round; stroke-width:2; stroke-opacity:0.1; fill:none" points="318.524,550.895 2674.02,550.895 "/>
<polyline clip-path="url(#clip122)" style="stroke:#000000; stroke-linecap:round; stroke-linejoin:round; stroke-width:2; stroke-opacity:0.1; fill:none" points="318.524,171.51 2674.02,171.51 "/>
<polyline clip-path="url(#clip120)" style="stroke:#000000; stroke-linecap:round; stroke-linejoin:round; stroke-width:4; stroke-opacity:1; fill:none" points="318.524,1734.58 318.524,125.984 "/>
<polyline clip-path="url(#clip120)" style="stroke:#000000; stroke-linecap:round; stroke-linejoin:round; stroke-width:4; stroke-opacity:1; fill:none" points="318.524,1689.05 337.421,1689.05 "/>
<polyline clip-path="url(#clip120)" style="stroke:#000000; stroke-linecap:round; stroke-linejoin:round; stroke-width:4; stroke-opacity:1; fill:none" points="318.524,1309.67 337.421,1309.67 "/>
<polyline clip-path="url(#clip120)" style="stroke:#000000; stroke-linecap:round; stroke-linejoin:round; stroke-width:4; stroke-opacity:1; fill:none" points="318.524,930.281 337.421,930.281 "/>
<polyline clip-path="url(#clip120)" style="stroke:#000000; stroke-linecap:round; stroke-linejoin:round; stroke-width:4; stroke-opacity:1; fill:none" points="318.524,550.895 337.421,550.895 "/>
<polyline clip-path="url(#clip120)" style="stroke:#000000; stroke-linecap:round; stroke-linejoin:round; stroke-width:4; stroke-opacity:1; fill:none" points="318.524,171.51 337.421,171.51 "/>
<path clip-path="url(#clip120)" d="M264.579 1674.85 Q260.968 1674.85 259.14 1678.41 Q257.334 1681.96 257.334 1689.09 Q257.334 1696.19 259.14 1699.76 Q260.968 1703.3 264.579 1703.3 Q268.214 1703.3 270.019 1699.76 Q271.848 1696.19 271.848 1689.09 Q271.848 1681.96 270.019 1678.41 Q268.214 1674.85 264.579 1674.85 M264.579 1671.15 Q270.39 1671.15 273.445 1675.75 Q276.524 1680.34 276.524 1689.09 Q276.524 1697.81 273.445 1702.42 Q270.39 1707 264.579 1707 Q258.769 1707 255.691 1702.42 Q252.635 1697.81 252.635 1689.09 Q252.635 1680.34 255.691 1675.75 Q258.769 1671.15 264.579 1671.15 Z" fill="#000000" fill-rule="nonzero" fill-opacity="1" /><path clip-path="url(#clip120)" d="M229.441 1323.01 L245.76 1323.01 L245.76 1326.95 L223.816 1326.95 L223.816 1323.01 Q226.478 1320.26 231.061 1315.63 Q235.668 1310.97 236.848 1309.63 Q239.093 1307.11 239.973 1305.37 Q240.876 1303.61 240.876 1301.92 Q240.876 1299.17 238.931 1297.43 Q237.01 1295.7 233.908 1295.7 Q231.709 1295.7 229.256 1296.46 Q226.825 1297.22 224.047 1298.77 L224.047 1294.05 Q226.871 1292.92 229.325 1292.34 Q231.779 1291.76 233.816 1291.76 Q239.186 1291.76 242.38 1294.45 Q245.575 1297.13 245.575 1301.62 Q245.575 1303.75 244.765 1305.67 Q243.978 1307.57 241.871 1310.16 Q241.292 1310.83 238.191 1314.05 Q235.089 1317.25 229.441 1323.01 Z" fill="#000000" fill-rule="nonzero" fill-opacity="1" /><path clip-path="url(#clip120)" d="M255.621 1292.39 L273.978 1292.39 L273.978 1296.32 L259.904 1296.32 L259.904 1304.79 Q260.922 1304.45 261.941 1304.28 Q262.959 1304.1 263.978 1304.1 Q269.765 1304.1 273.144 1307.27 Q276.524 1310.44 276.524 1315.86 Q276.524 1321.44 273.052 1324.54 Q269.579 1327.62 263.26 1327.62 Q261.084 1327.62 258.816 1327.25 Q256.57 1326.88 254.163 1326.14 L254.163 1321.44 Q256.246 1322.57 258.468 1323.13 Q260.691 1323.68 263.167 1323.68 Q267.172 1323.68 269.51 1321.58 Q271.848 1319.47 271.848 1315.86 Q271.848 1312.25 269.51 1310.14 Q267.172 1308.03 263.167 1308.03 Q261.292 1308.03 259.417 1308.45 Q257.566 1308.87 255.621 1309.75 L255.621 1292.39 Z" fill="#000000" fill-rule="nonzero" fill-opacity="1" /><path clip-path="url(#clip120)" d="M224.464 913.001 L242.82 913.001 L242.82 916.936 L228.746 916.936 L228.746 925.408 Q229.765 925.061 230.783 924.899 Q231.802 924.713 232.82 924.713 Q238.607 924.713 241.987 927.885 Q245.367 931.056 245.367 936.473 Q245.367 942.051 241.894 945.153 Q238.422 948.232 232.103 948.232 Q229.927 948.232 227.658 947.861 Q225.413 947.491 223.006 946.75 L223.006 942.051 Q225.089 943.186 227.311 943.741 Q229.533 944.297 232.01 944.297 Q236.015 944.297 238.353 942.19 Q240.691 940.084 240.691 936.473 Q240.691 932.862 238.353 930.755 Q236.015 928.649 232.01 928.649 Q230.135 928.649 228.26 929.065 Q226.408 929.482 224.464 930.362 L224.464 913.001 Z" fill="#000000" fill-rule="nonzero" fill-opacity="1" /><path clip-path="url(#clip120)" d="M264.579 916.079 Q260.968 916.079 259.14 919.644 Q257.334 923.186 257.334 930.315 Q257.334 937.422 259.14 940.987 Q260.968 944.528 264.579 944.528 Q268.214 944.528 270.019 940.987 Q271.848 937.422 271.848 930.315 Q271.848 923.186 270.019 919.644 Q268.214 916.079 264.579 916.079 M264.579 912.376 Q270.39 912.376 273.445 916.982 Q276.524 921.565 276.524 930.315 Q276.524 939.042 273.445 943.649 Q270.39 948.232 264.579 948.232 Q258.769 948.232 255.691 943.649 Q252.635 939.042 252.635 930.315 Q252.635 921.565 255.691 916.982 Q258.769 912.376 264.579 912.376 Z" fill="#000000" fill-rule="nonzero" fill-opacity="1" /><path clip-path="url(#clip120)" d="M224.232 533.615 L246.455 533.615 L246.455 535.606 L233.908 568.175 L229.024 568.175 L240.83 537.551 L224.232 537.551 L224.232 533.615 Z" fill="#000000" fill-rule="nonzero" fill-opacity="1" /><path clip-path="url(#clip120)" d="M255.621 533.615 L273.978 533.615 L273.978 537.551 L259.904 537.551 L259.904 546.023 Q260.922 545.676 261.941 545.514 Q262.959 545.328 263.978 545.328 Q269.765 545.328 273.144 548.5 Q276.524 551.671 276.524 557.088 Q276.524 562.666 273.052 565.768 Q269.579 568.847 263.26 568.847 Q261.084 568.847 258.816 568.476 Q256.57 568.106 254.163 567.365 L254.163 562.666 Q256.246 563.801 258.468 564.356 Q260.691 564.912 263.167 564.912 Q267.172 564.912 269.51 562.805 Q271.848 560.699 271.848 557.088 Q271.848 553.477 269.51 551.37 Q267.172 549.264 263.167 549.264 Q261.292 549.264 259.417 549.68 Q257.566 550.097 255.621 550.977 L255.621 533.615 Z" fill="#000000" fill-rule="nonzero" fill-opacity="1" /><path clip-path="url(#clip120)" d="M195.066 184.855 L202.705 184.855 L202.705 158.49 L194.395 160.156 L194.395 155.897 L202.658 154.23 L207.334 154.23 L207.334 184.855 L214.973 184.855 L214.973 188.79 L195.066 188.79 L195.066 184.855 Z" fill="#000000" fill-rule="nonzero" fill-opacity="1" /><path clip-path="url(#clip120)" d="M234.418 157.309 Q230.806 157.309 228.978 160.874 Q227.172 164.416 227.172 171.545 Q227.172 178.652 228.978 182.216 Q230.806 185.758 234.418 185.758 Q238.052 185.758 239.857 182.216 Q241.686 178.652 241.686 171.545 Q241.686 164.416 239.857 160.874 Q238.052 157.309 234.418 157.309 M234.418 153.605 Q240.228 153.605 243.283 158.212 Q246.362 162.795 246.362 171.545 Q246.362 180.272 243.283 184.878 Q240.228 189.462 234.418 189.462 Q228.607 189.462 225.529 184.878 Q222.473 180.272 222.473 171.545 Q222.473 162.795 225.529 158.212 Q228.607 153.605 234.418 153.605 Z" fill="#000000" fill-rule="nonzero" fill-opacity="1" /><path clip-path="url(#clip120)" d="M264.579 157.309 Q260.968 157.309 259.14 160.874 Q257.334 164.416 257.334 171.545 Q257.334 178.652 259.14 182.216 Q260.968 185.758 264.579 185.758 Q268.214 185.758 270.019 182.216 Q271.848 178.652 271.848 171.545 Q271.848 164.416 270.019 160.874 Q268.214 157.309 264.579 157.309 M264.579 153.605 Q270.39 153.605 273.445 158.212 Q276.524 162.795 276.524 171.545 Q276.524 180.272 273.445 184.878 Q270.39 189.462 264.579 189.462 Q258.769 189.462 255.691 184.878 Q252.635 180.272 252.635 171.545 Q252.635 162.795 255.691 158.212 Q258.769 153.605 264.579 153.605 Z" fill="#000000" fill-rule="nonzero" fill-opacity="1" /><path clip-path="url(#clip120)" d="M95.9021 1122.14 L132.855 1122.14 L132.855 1114.38 Q132.855 1104.54 128.399 1099.99 Q123.943 1095.41 114.331 1095.41 Q104.782 1095.41 100.358 1099.99 Q95.9021 1104.54 95.9021 1114.38 L95.9021 1122.14 M90.6186 1128.57 L90.6186 1115.36 Q90.6186 1101.55 96.3796 1095.09 Q102.109 1088.63 114.331 1088.63 Q126.617 1088.63 132.378 1095.12 Q138.139 1101.61 138.139 1115.36 L138.139 1128.57 L90.6186 1128.57 Z" fill="#000000" fill-rule="nonzero" fill-opacity="1" /><path clip-path="url(#clip120)" d="M120.219 1062.43 Q120.219 1069.53 121.842 1072.27 Q123.466 1075 127.381 1075 Q130.5 1075 132.346 1072.97 Q134.16 1070.9 134.16 1067.37 Q134.16 1062.5 130.723 1059.57 Q127.253 1056.61 121.524 1056.61 L120.219 1056.61 L120.219 1062.43 M117.8 1050.75 L138.139 1050.75 L138.139 1056.61 L132.728 1056.61 Q135.974 1058.61 137.534 1061.61 Q139.062 1064.6 139.062 1068.93 Q139.062 1074.4 136.006 1077.65 Q132.919 1080.86 127.762 1080.86 Q121.747 1080.86 118.691 1076.85 Q115.636 1072.81 115.636 1064.82 L115.636 1056.61 L115.063 1056.61 Q111.021 1056.61 108.825 1059.28 Q106.597 1061.92 106.597 1066.73 Q106.597 1069.79 107.329 1072.68 Q108.061 1075.58 109.525 1078.25 L104.114 1078.25 Q102.873 1075.04 102.268 1072.01 Q101.631 1068.99 101.631 1066.12 Q101.631 1058.39 105.642 1054.57 Q109.652 1050.75 117.8 1050.75 Z" fill="#000000" fill-rule="nonzero" fill-opacity="1" /><path clip-path="url(#clip120)" d="M109.334 1010.93 Q105.387 1008.74 103.509 1005.68 Q101.631 1002.63 101.631 998.489 Q101.631 992.919 105.546 989.895 Q109.429 986.872 116.623 986.872 L138.139 986.872 L138.139 992.76 L116.813 992.76 Q111.689 992.76 109.206 994.574 Q106.724 996.388 106.724 1000.11 Q106.724 1004.66 109.748 1007.31 Q112.771 1009.95 117.991 1009.95 L138.139 1009.95 L138.139 1015.84 L116.813 1015.84 Q111.657 1015.84 109.206 1017.65 Q106.724 1019.46 106.724 1023.25 Q106.724 1027.74 109.779 1030.38 Q112.803 1033.02 117.991 1033.02 L138.139 1033.02 L138.139 1038.91 L102.491 1038.91 L102.491 1033.02 L108.029 1033.02 Q104.75 1031.02 103.191 1028.22 Q101.631 1025.42 101.631 1021.56 Q101.631 1017.68 103.605 1014.98 Q105.578 1012.24 109.334 1010.93 Z" fill="#000000" fill-rule="nonzero" fill-opacity="1" /><path clip-path="url(#clip120)" d="M120.219 958.99 Q120.219 966.088 121.842 968.825 Q123.466 971.562 127.381 971.562 Q130.5 971.562 132.346 969.525 Q134.16 967.456 134.16 963.923 Q134.16 959.054 130.723 956.125 Q127.253 953.165 121.524 953.165 L120.219 953.165 L120.219 958.99 M117.8 947.309 L138.139 947.309 L138.139 953.165 L132.728 953.165 Q135.974 955.17 137.534 958.162 Q139.062 961.154 139.062 965.483 Q139.062 970.957 136.006 974.204 Q132.919 977.419 127.762 977.419 Q121.747 977.419 118.691 973.408 Q115.636 969.366 115.636 961.377 L115.636 953.165 L115.063 953.165 Q111.021 953.165 108.825 955.839 Q106.597 958.481 106.597 963.287 Q106.597 966.342 107.329 969.239 Q108.061 972.135 109.525 974.809 L104.114 974.809 Q102.873 971.594 102.268 968.57 Q101.631 965.547 101.631 962.682 Q101.631 954.948 105.642 951.128 Q109.652 947.309 117.8 947.309 Z" fill="#000000" fill-rule="nonzero" fill-opacity="1" /><path clip-path="url(#clip120)" d="M119.901 911.788 Q113.535 911.788 110.034 914.43 Q106.533 917.04 106.533 921.782 Q106.533 926.493 110.034 929.135 Q113.535 931.745 119.901 931.745 Q126.235 931.745 129.736 929.135 Q133.237 926.493 133.237 921.782 Q133.237 917.04 129.736 914.43 Q126.235 911.788 119.901 911.788 M133.714 905.932 Q142.817 905.932 147.242 909.974 Q151.698 914.016 151.698 922.355 Q151.698 925.443 151.22 928.18 Q150.775 930.917 149.82 933.495 L144.122 933.495 Q145.523 930.917 146.191 928.403 Q146.86 925.888 146.86 923.278 Q146.86 917.517 143.836 914.653 Q140.844 911.788 134.765 911.788 L131.868 911.788 Q135.019 913.602 136.579 916.435 Q138.139 919.268 138.139 923.215 Q138.139 929.771 133.142 933.782 Q128.144 937.792 119.901 937.792 Q111.625 937.792 106.628 933.782 Q101.631 929.771 101.631 923.215 Q101.631 919.268 103.191 916.435 Q104.75 913.602 107.901 911.788 L102.491 911.788 L102.491 905.932 L133.714 905.932 Z" fill="#000000" fill-rule="nonzero" fill-opacity="1" /><path clip-path="url(#clip120)" d="M118.851 863.377 L121.715 863.377 L121.715 890.304 Q127.762 889.922 130.945 886.675 Q134.096 883.397 134.096 877.572 Q134.096 874.199 133.269 871.048 Q132.441 867.865 130.786 864.746 L136.324 864.746 Q137.661 867.897 138.361 871.207 Q139.062 874.517 139.062 877.923 Q139.062 886.453 134.096 891.45 Q129.131 896.415 120.665 896.415 Q111.912 896.415 106.787 891.704 Q101.631 886.962 101.631 878.941 Q101.631 871.748 106.278 867.578 Q110.893 863.377 118.851 863.377 M117.132 869.233 Q112.326 869.297 109.461 871.939 Q106.597 874.549 106.597 878.877 Q106.597 883.779 109.366 886.739 Q112.135 889.667 117.164 890.113 L117.132 869.233 Z" fill="#000000" fill-rule="nonzero" fill-opacity="1" /><path clip-path="url(#clip120)" d="M88.6771 818.976 Q95.9976 823.241 103.159 825.31 Q110.32 827.379 117.673 827.379 Q125.025 827.379 132.25 825.31 Q139.444 823.209 146.732 818.976 L146.732 824.069 Q139.253 828.843 132.028 831.23 Q124.802 833.585 117.673 833.585 Q110.575 833.585 103.382 831.23 Q96.1886 828.875 88.6771 824.069 L88.6771 818.976 Z" fill="#000000" fill-rule="nonzero" fill-opacity="1" /><path clip-path="url(#clip120)" d="M117.227 766.364 Q117.227 769.133 119.583 770.724 Q121.938 772.284 126.139 772.284 Q130.277 772.284 132.664 770.724 Q135.019 769.133 135.019 766.364 Q135.019 763.658 132.664 762.099 Q130.277 760.507 126.139 760.507 Q121.97 760.507 119.614 762.099 Q117.227 763.658 117.227 766.364 M113.185 766.364 Q113.185 761.335 116.686 758.375 Q120.187 755.415 126.139 755.415 Q132.091 755.415 135.592 758.406 Q139.062 761.367 139.062 766.364 Q139.062 771.456 135.592 774.416 Q132.091 777.376 126.139 777.376 Q120.155 777.376 116.686 774.416 Q113.185 771.424 113.185 766.364 M93.8015 799.211 Q93.8015 801.948 96.1886 803.539 Q98.5439 805.099 102.682 805.099 Q106.883 805.099 109.238 803.539 Q111.594 801.98 111.594 799.211 Q111.594 796.442 109.238 794.882 Q106.883 793.291 102.682 793.291 Q98.5757 793.291 96.1886 794.882 Q93.8015 796.473 93.8015 799.211 M89.7592 770.469 L89.7592 765.377 L139.062 795.105 L139.062 800.197 L89.7592 770.469 M89.7592 799.211 Q89.7592 794.182 93.2604 791.19 Q96.7297 788.198 102.682 788.198 Q108.697 788.198 112.167 791.19 Q115.636 794.15 115.636 799.211 Q115.636 804.271 112.167 807.231 Q108.665 810.16 102.682 810.16 Q96.7615 810.16 93.2604 807.2 Q89.7592 804.24 89.7592 799.211 Z" fill="#000000" fill-rule="nonzero" fill-opacity="1" /><path clip-path="url(#clip120)" d="M88.6771 746.598 L88.6771 741.506 Q96.1886 736.731 103.382 734.376 Q110.575 731.989 117.673 731.989 Q124.802 731.989 132.028 734.376 Q139.253 736.731 146.732 741.506 L146.732 746.598 Q139.444 742.365 132.25 740.296 Q125.025 738.195 117.673 738.195 Q110.32 738.195 103.159 740.296 Q95.9976 742.365 88.6771 746.598 Z" fill="#000000" fill-rule="nonzero" fill-opacity="1" /><circle clip-path="url(#clip122)" cx="385.189" cy="1689.05" r="14.4" fill="#009af9" fill-rule="evenodd" fill-opacity="1" stroke="#000000" stroke-opacity="1" stroke-width="4"/>
<circle clip-path="url(#clip122)" cx="464.552" cy="1689.05" r="14.4" fill="#009af9" fill-rule="evenodd" fill-opacity="1" stroke="#000000" stroke-opacity="1" stroke-width="4"/>
<circle clip-path="url(#clip122)" cx="543.915" cy="1689.05" r="14.4" fill="#009af9" fill-rule="evenodd" fill-opacity="1" stroke="#000000" stroke-opacity="1" stroke-width="4"/>
<circle clip-path="url(#clip122)" cx="623.277" cy="1689.05" r="14.4" fill="#009af9" fill-rule="evenodd" fill-opacity="1" stroke="#000000" stroke-opacity="1" stroke-width="4"/>
<circle clip-path="url(#clip122)" cx="702.64" cy="1628.35" r="14.4" fill="#009af9" fill-rule="evenodd" fill-opacity="1" stroke="#000000" stroke-opacity="1" stroke-width="4"/>
<circle clip-path="url(#clip122)" cx="782.003" cy="1324.84" r="14.4" fill="#009af9" fill-rule="evenodd" fill-opacity="1" stroke="#000000" stroke-opacity="1" stroke-width="4"/>
<circle clip-path="url(#clip122)" cx="861.366" cy="1173.09" r="14.4" fill="#009af9" fill-rule="evenodd" fill-opacity="1" stroke="#000000" stroke-opacity="1" stroke-width="4"/>
<circle clip-path="url(#clip122)" cx="940.729" cy="1082.03" r="14.4" fill="#009af9" fill-rule="evenodd" fill-opacity="1" stroke="#000000" stroke-opacity="1" stroke-width="4"/>
<circle clip-path="url(#clip122)" cx="1020.09" cy="975.807" r="14.4" fill="#009af9" fill-rule="evenodd" fill-opacity="1" stroke="#000000" stroke-opacity="1" stroke-width="4"/>
<circle clip-path="url(#clip122)" cx="1099.46" cy="884.754" r="14.4" fill="#009af9" fill-rule="evenodd" fill-opacity="1" stroke="#000000" stroke-opacity="1" stroke-width="4"/>
<circle clip-path="url(#clip122)" cx="1178.82" cy="839.228" r="14.4" fill="#009af9" fill-rule="evenodd" fill-opacity="1" stroke="#000000" stroke-opacity="1" stroke-width="4"/>
<circle clip-path="url(#clip122)" cx="1258.18" cy="808.877" r="14.4" fill="#009af9" fill-rule="evenodd" fill-opacity="1" stroke="#000000" stroke-opacity="1" stroke-width="4"/>
<circle clip-path="url(#clip122)" cx="1337.54" cy="808.877" r="14.4" fill="#009af9" fill-rule="evenodd" fill-opacity="1" stroke="#000000" stroke-opacity="1" stroke-width="4"/>
<circle clip-path="url(#clip122)" cx="1416.91" cy="808.877" r="14.4" fill="#009af9" fill-rule="evenodd" fill-opacity="1" stroke="#000000" stroke-opacity="1" stroke-width="4"/>
<circle clip-path="url(#clip122)" cx="1496.27" cy="763.351" r="14.4" fill="#009af9" fill-rule="evenodd" fill-opacity="1" stroke="#000000" stroke-opacity="1" stroke-width="4"/>
<circle clip-path="url(#clip122)" cx="1575.63" cy="687.474" r="14.4" fill="#009af9" fill-rule="evenodd" fill-opacity="1" stroke="#000000" stroke-opacity="1" stroke-width="4"/>
<circle clip-path="url(#clip122)" cx="1655" cy="657.123" r="14.4" fill="#009af9" fill-rule="evenodd" fill-opacity="1" stroke="#000000" stroke-opacity="1" stroke-width="4"/>
<circle clip-path="url(#clip122)" cx="1734.36" cy="535.72" r="14.4" fill="#009af9" fill-rule="evenodd" fill-opacity="1" stroke="#000000" stroke-opacity="1" stroke-width="4"/>
<circle clip-path="url(#clip122)" cx="1813.72" cy="459.843" r="14.4" fill="#009af9" fill-rule="evenodd" fill-opacity="1" stroke="#000000" stroke-opacity="1" stroke-width="4"/>
<circle clip-path="url(#clip122)" cx="1893.08" cy="383.966" r="14.4" fill="#009af9" fill-rule="evenodd" fill-opacity="1" stroke="#000000" stroke-opacity="1" stroke-width="4"/>
<circle clip-path="url(#clip122)" cx="1972.45" cy="323.264" r="14.4" fill="#009af9" fill-rule="evenodd" fill-opacity="1" stroke="#000000" stroke-opacity="1" stroke-width="4"/>
<circle clip-path="url(#clip122)" cx="2051.81" cy="171.51" r="14.4" fill="#009af9" fill-rule="evenodd" fill-opacity="1" stroke="#000000" stroke-opacity="1" stroke-width="4"/>
<circle clip-path="url(#clip122)" cx="2131.17" cy="171.51" r="14.4" fill="#009af9" fill-rule="evenodd" fill-opacity="1" stroke="#000000" stroke-opacity="1" stroke-width="4"/>
<circle clip-path="url(#clip122)" cx="2210.54" cy="171.51" r="14.4" fill="#009af9" fill-rule="evenodd" fill-opacity="1" stroke="#000000" stroke-opacity="1" stroke-width="4"/>
<circle clip-path="url(#clip122)" cx="2289.9" cy="171.51" r="14.4" fill="#009af9" fill-rule="evenodd" fill-opacity="1" stroke="#000000" stroke-opacity="1" stroke-width="4"/>
<circle clip-path="url(#clip122)" cx="2369.26" cy="171.51" r="14.4" fill="#009af9" fill-rule="evenodd" fill-opacity="1" stroke="#000000" stroke-opacity="1" stroke-width="4"/>
<circle clip-path="url(#clip122)" cx="2448.63" cy="171.51" r="14.4" fill="#009af9" fill-rule="evenodd" fill-opacity="1" stroke="#000000" stroke-opacity="1" stroke-width="4"/>
<circle clip-path="url(#clip122)" cx="2527.99" cy="171.51" r="14.4" fill="#009af9" fill-rule="evenodd" fill-opacity="1" stroke="#000000" stroke-opacity="1" stroke-width="4"/>
<circle clip-path="url(#clip122)" cx="2607.35" cy="171.51" r="14.4" fill="#009af9" fill-rule="evenodd" fill-opacity="1" stroke="#000000" stroke-opacity="1" stroke-width="4"/>
<path clip-path="url(#clip120)" d="M1061.25 1680.96 L2595.5 1680.96 L2595.5 1577.28 L1061.25 1577.28  Z" fill="#ffffff" fill-rule="evenodd" fill-opacity="1"/>
<polyline clip-path="url(#clip120)" style="stroke:#000000; stroke-linecap:round; stroke-linejoin:round; stroke-width:4; stroke-opacity:1; fill:none" points="1061.25,1680.96 2595.5,1680.96 2595.5,1577.28 1061.25,1577.28 1061.25,1680.96 "/>
<circle clip-path="url(#clip120)" cx="1165.94" cy="1629.12" r="20.48" fill="#009af9" fill-rule="evenodd" fill-opacity="1" stroke="#000000" stroke-opacity="1" stroke-width="5.68889"/>
<path clip-path="url(#clip120)" d="M1278.04 1613.11 L1278.04 1620.47 L1286.81 1620.47 L1286.81 1623.78 L1278.04 1623.78 L1278.04 1637.86 Q1278.04 1641.03 1278.89 1641.93 Q1279.77 1642.83 1282.44 1642.83 L1286.81 1642.83 L1286.81 1646.4 L1282.44 1646.4 Q1277.51 1646.4 1275.63 1644.57 Q1273.76 1642.72 1273.76 1637.86 L1273.76 1623.78 L1270.63 1623.78 L1270.63 1620.47 L1273.76 1620.47 L1273.76 1613.11 L1278.04 1613.11 Z" fill="#000000" fill-rule="nonzero" fill-opacity="1" /><path clip-path="url(#clip120)" d="M1289.94 1620.47 L1294.2 1620.47 L1299.52 1640.7 L1304.82 1620.47 L1309.84 1620.47 L1315.17 1640.7 L1320.47 1620.47 L1324.73 1620.47 L1317.95 1646.4 L1312.92 1646.4 L1307.34 1625.15 L1301.74 1646.4 L1296.72 1646.4 L1289.94 1620.47 Z" fill="#000000" fill-rule="nonzero" fill-opacity="1" /><path clip-path="url(#clip120)" d="M1341.23 1623.46 Q1337.81 1623.46 1335.82 1626.14 Q1333.82 1628.8 1333.82 1633.46 Q1333.82 1638.11 1335.79 1640.8 Q1337.78 1643.46 1341.23 1643.46 Q1344.63 1643.46 1346.63 1640.77 Q1348.62 1638.09 1348.62 1633.46 Q1348.62 1628.85 1346.63 1626.17 Q1344.63 1623.46 1341.23 1623.46 M1341.23 1619.85 Q1346.79 1619.85 1349.96 1623.46 Q1353.13 1627.07 1353.13 1633.46 Q1353.13 1639.82 1349.96 1643.46 Q1346.79 1647.07 1341.23 1647.07 Q1335.65 1647.07 1332.48 1643.46 Q1329.33 1639.82 1329.33 1633.46 Q1329.33 1627.07 1332.48 1623.46 Q1335.65 1619.85 1341.23 1619.85 Z" fill="#000000" fill-rule="nonzero" fill-opacity="1" /><path clip-path="url(#clip120)" d="M1391.79 1621.24 L1391.79 1625.26 Q1389.98 1624.34 1388.04 1623.87 Q1386.09 1623.41 1384.01 1623.41 Q1380.84 1623.41 1379.24 1624.38 Q1377.67 1625.36 1377.67 1627.3 Q1377.67 1628.78 1378.8 1629.64 Q1379.94 1630.47 1383.36 1631.24 L1384.82 1631.56 Q1389.36 1632.53 1391.25 1634.31 Q1393.18 1636.07 1393.18 1639.24 Q1393.18 1642.86 1390.31 1644.96 Q1387.46 1647.07 1382.46 1647.07 Q1380.38 1647.07 1378.11 1646.65 Q1375.86 1646.26 1373.36 1645.45 L1373.36 1641.05 Q1375.72 1642.28 1378.01 1642.9 Q1380.31 1643.5 1382.55 1643.5 Q1385.56 1643.5 1387.18 1642.49 Q1388.8 1641.44 1388.8 1639.57 Q1388.8 1637.83 1387.62 1636.91 Q1386.46 1635.98 1382.5 1635.12 L1381.02 1634.78 Q1377.07 1633.94 1375.31 1632.23 Q1373.55 1630.49 1373.55 1627.49 Q1373.55 1623.83 1376.14 1621.84 Q1378.73 1619.85 1383.5 1619.85 Q1385.86 1619.85 1387.94 1620.19 Q1390.03 1620.54 1391.79 1621.24 Z" fill="#000000" fill-rule="nonzero" fill-opacity="1" /><path clip-path="url(#clip120)" d="M1404.17 1613.11 L1404.17 1620.47 L1412.94 1620.47 L1412.94 1623.78 L1404.17 1623.78 L1404.17 1637.86 Q1404.17 1641.03 1405.03 1641.93 Q1405.91 1642.83 1408.57 1642.83 L1412.94 1642.83 L1412.94 1646.4 L1408.57 1646.4 Q1403.64 1646.4 1401.76 1644.57 Q1399.89 1642.72 1399.89 1637.86 L1399.89 1623.78 L1396.76 1623.78 L1396.76 1620.47 L1399.89 1620.47 L1399.89 1613.11 L1404.17 1613.11 Z" fill="#000000" fill-rule="nonzero" fill-opacity="1" /><path clip-path="url(#clip120)" d="M1428.59 1623.46 Q1425.17 1623.46 1423.18 1626.14 Q1421.19 1628.8 1421.19 1633.46 Q1421.19 1638.11 1423.15 1640.8 Q1425.14 1643.46 1428.59 1643.46 Q1432 1643.46 1433.99 1640.77 Q1435.98 1638.09 1435.98 1633.46 Q1435.98 1628.85 1433.99 1626.17 Q1432 1623.46 1428.59 1623.46 M1428.59 1619.85 Q1434.15 1619.85 1437.32 1623.46 Q1440.49 1627.07 1440.49 1633.46 Q1440.49 1639.82 1437.32 1643.46 Q1434.15 1647.07 1428.59 1647.07 Q1423.01 1647.07 1419.84 1643.46 Q1416.69 1639.82 1416.69 1633.46 Q1416.69 1627.07 1419.84 1623.46 Q1423.01 1619.85 1428.59 1619.85 Z" fill="#000000" fill-rule="nonzero" fill-opacity="1" /><path clip-path="url(#clip120)" d="M1462.57 1624.45 Q1461.86 1624.04 1461 1623.85 Q1460.17 1623.64 1459.15 1623.64 Q1455.54 1623.64 1453.59 1626 Q1451.67 1628.34 1451.67 1632.74 L1451.67 1646.4 L1447.39 1646.4 L1447.39 1620.47 L1451.67 1620.47 L1451.67 1624.5 Q1453.01 1622.14 1455.17 1621 Q1457.32 1619.85 1460.4 1619.85 Q1460.84 1619.85 1461.37 1619.92 Q1461.9 1619.96 1462.55 1620.08 L1462.57 1624.45 Z" fill="#000000" fill-rule="nonzero" fill-opacity="1" /><path clip-path="url(#clip120)" d="M1477.83 1648.8 Q1476.02 1653.43 1474.31 1654.85 Q1472.6 1656.26 1469.73 1656.26 L1466.32 1656.26 L1466.32 1652.69 L1468.82 1652.69 Q1470.58 1652.69 1471.56 1651.86 Q1472.53 1651.03 1473.71 1647.92 L1474.47 1645.98 L1463.99 1620.47 L1468.5 1620.47 L1476.6 1640.75 L1484.7 1620.47 L1489.22 1620.47 L1477.83 1648.8 Z" fill="#000000" fill-rule="nonzero" fill-opacity="1" /><path clip-path="url(#clip120)" d="M1496.18 1640.52 L1501.07 1640.52 L1501.07 1644.5 L1497.27 1651.91 L1494.29 1651.91 L1496.18 1644.5 L1496.18 1640.52 Z" fill="#000000" fill-rule="nonzero" fill-opacity="1" /><path clip-path="url(#clip120)" d="M1546.79 1630.75 L1546.79 1646.4 L1542.53 1646.4 L1542.53 1630.89 Q1542.53 1627.21 1541.09 1625.38 Q1539.66 1623.55 1536.79 1623.55 Q1533.34 1623.55 1531.35 1625.75 Q1529.36 1627.95 1529.36 1631.74 L1529.36 1646.4 L1525.07 1646.4 L1525.07 1620.47 L1529.36 1620.47 L1529.36 1624.5 Q1530.88 1622.16 1532.94 1621 Q1535.03 1619.85 1537.74 1619.85 Q1542.2 1619.85 1544.49 1622.62 Q1546.79 1625.38 1546.79 1630.75 Z" fill="#000000" fill-rule="nonzero" fill-opacity="1" /><path clip-path="url(#clip120)" d="M1565.33 1623.46 Q1561.9 1623.46 1559.91 1626.14 Q1557.92 1628.8 1557.92 1633.46 Q1557.92 1638.11 1559.89 1640.8 Q1561.88 1643.46 1565.33 1643.46 Q1568.73 1643.46 1570.72 1640.77 Q1572.71 1638.09 1572.71 1633.46 Q1572.71 1628.85 1570.72 1626.17 Q1568.73 1623.46 1565.33 1623.46 M1565.33 1619.85 Q1570.88 1619.85 1574.05 1623.46 Q1577.23 1627.07 1577.23 1633.46 Q1577.23 1639.82 1574.05 1643.46 Q1570.88 1647.07 1565.33 1647.07 Q1559.75 1647.07 1556.58 1643.46 Q1553.43 1639.82 1553.43 1633.46 Q1553.43 1627.07 1556.58 1623.46 Q1559.75 1619.85 1565.33 1619.85 Z" fill="#000000" fill-rule="nonzero" fill-opacity="1" /><path clip-path="url(#clip120)" d="M1617.97 1633.46 Q1617.97 1628.76 1616.02 1626.1 Q1614.1 1623.41 1610.72 1623.41 Q1607.34 1623.41 1605.4 1626.1 Q1603.48 1628.76 1603.48 1633.46 Q1603.48 1638.16 1605.4 1640.84 Q1607.34 1643.5 1610.72 1643.5 Q1614.1 1643.5 1616.02 1640.84 Q1617.97 1638.16 1617.97 1633.46 M1603.48 1624.41 Q1604.82 1622.09 1606.86 1620.98 Q1608.92 1619.85 1611.76 1619.85 Q1616.49 1619.85 1619.42 1623.6 Q1622.39 1627.35 1622.39 1633.46 Q1622.39 1639.57 1619.42 1643.32 Q1616.49 1647.07 1611.76 1647.07 Q1608.92 1647.07 1606.86 1645.96 Q1604.82 1644.82 1603.48 1642.51 L1603.48 1646.4 L1599.19 1646.4 L1599.19 1610.38 L1603.48 1610.38 L1603.48 1624.41 Z" fill="#000000" fill-rule="nonzero" fill-opacity="1" /><path clip-path="url(#clip120)" d="M1641.23 1633.36 Q1636.07 1633.36 1634.08 1634.55 Q1632.09 1635.73 1632.09 1638.57 Q1632.09 1640.84 1633.57 1642.18 Q1635.07 1643.5 1637.64 1643.5 Q1641.18 1643.5 1643.31 1641 Q1645.47 1638.48 1645.47 1634.31 L1645.47 1633.36 L1641.23 1633.36 M1649.73 1631.61 L1649.73 1646.4 L1645.47 1646.4 L1645.47 1642.46 Q1644.01 1644.82 1641.83 1645.96 Q1639.66 1647.07 1636.51 1647.07 Q1632.53 1647.07 1630.17 1644.85 Q1627.83 1642.6 1627.83 1638.85 Q1627.83 1634.48 1630.74 1632.25 Q1633.68 1630.03 1639.49 1630.03 L1645.47 1630.03 L1645.47 1629.61 Q1645.47 1626.67 1643.52 1625.08 Q1641.6 1623.46 1638.11 1623.46 Q1635.88 1623.46 1633.78 1623.99 Q1631.67 1624.52 1629.73 1625.59 L1629.73 1621.65 Q1632.06 1620.75 1634.26 1620.31 Q1636.46 1619.85 1638.55 1619.85 Q1644.17 1619.85 1646.95 1622.76 Q1649.73 1625.68 1649.73 1631.61 Z" fill="#000000" fill-rule="nonzero" fill-opacity="1" /><path clip-path="url(#clip120)" d="M1675.03 1621.24 L1675.03 1625.26 Q1673.22 1624.34 1671.28 1623.87 Q1669.33 1623.41 1667.25 1623.41 Q1664.08 1623.41 1662.48 1624.38 Q1660.91 1625.36 1660.91 1627.3 Q1660.91 1628.78 1662.04 1629.64 Q1663.17 1630.47 1666.6 1631.24 L1668.06 1631.56 Q1672.6 1632.53 1674.49 1634.31 Q1676.42 1636.07 1676.42 1639.24 Q1676.42 1642.86 1673.54 1644.96 Q1670.7 1647.07 1665.7 1647.07 Q1663.61 1647.07 1661.35 1646.65 Q1659.1 1646.26 1656.6 1645.45 L1656.6 1641.05 Q1658.96 1642.28 1661.25 1642.9 Q1663.55 1643.5 1665.79 1643.5 Q1668.8 1643.5 1670.42 1642.49 Q1672.04 1641.44 1672.04 1639.57 Q1672.04 1637.83 1670.86 1636.91 Q1669.7 1635.98 1665.74 1635.12 L1664.26 1634.78 Q1660.3 1633.94 1658.55 1632.23 Q1656.79 1630.49 1656.79 1627.49 Q1656.79 1623.83 1659.38 1621.84 Q1661.97 1619.85 1666.74 1619.85 Q1669.1 1619.85 1671.18 1620.19 Q1673.27 1620.54 1675.03 1621.24 Z" fill="#000000" fill-rule="nonzero" fill-opacity="1" /><path clip-path="url(#clip120)" d="M1705.37 1632.37 L1705.37 1634.45 L1685.79 1634.45 Q1686.07 1638.85 1688.43 1641.17 Q1690.81 1643.46 1695.05 1643.46 Q1697.5 1643.46 1699.79 1642.86 Q1702.11 1642.25 1704.38 1641.05 L1704.38 1645.08 Q1702.09 1646.05 1699.68 1646.56 Q1697.27 1647.07 1694.79 1647.07 Q1688.59 1647.07 1684.96 1643.46 Q1681.35 1639.85 1681.35 1633.69 Q1681.35 1627.32 1684.77 1623.6 Q1688.22 1619.85 1694.05 1619.85 Q1699.29 1619.85 1702.32 1623.23 Q1705.37 1626.58 1705.37 1632.37 M1701.11 1631.12 Q1701.07 1627.62 1699.15 1625.54 Q1697.25 1623.46 1694.1 1623.46 Q1690.54 1623.46 1688.38 1625.47 Q1686.25 1627.49 1685.93 1631.14 L1701.11 1631.12 Z" fill="#000000" fill-rule="nonzero" fill-opacity="1" /><path clip-path="url(#clip120)" d="M1732.55 1625.45 Q1734.15 1622.58 1736.37 1621.21 Q1738.59 1619.85 1741.6 1619.85 Q1745.65 1619.85 1747.85 1622.69 Q1750.05 1625.52 1750.05 1630.75 L1750.05 1646.4 L1745.77 1646.4 L1745.77 1630.89 Q1745.77 1627.16 1744.45 1625.36 Q1743.13 1623.55 1740.42 1623.55 Q1737.11 1623.55 1735.19 1625.75 Q1733.27 1627.95 1733.27 1631.74 L1733.27 1646.4 L1728.98 1646.4 L1728.98 1630.89 Q1728.98 1627.14 1727.67 1625.36 Q1726.35 1623.55 1723.59 1623.55 Q1720.33 1623.55 1718.41 1625.77 Q1716.48 1627.97 1716.48 1631.74 L1716.48 1646.4 L1712.2 1646.4 L1712.2 1620.47 L1716.48 1620.47 L1716.48 1624.5 Q1717.94 1622.11 1719.98 1620.98 Q1722.02 1619.85 1724.82 1619.85 Q1727.64 1619.85 1729.61 1621.28 Q1731.6 1622.72 1732.55 1625.45 Z" fill="#000000" fill-rule="nonzero" fill-opacity="1" /><path clip-path="url(#clip120)" d="M1780.72 1632.37 L1780.72 1634.45 L1761.14 1634.45 Q1761.41 1638.85 1763.78 1641.17 Q1766.16 1643.46 1770.4 1643.46 Q1772.85 1643.46 1775.14 1642.86 Q1777.46 1642.25 1779.72 1641.05 L1779.72 1645.08 Q1777.43 1646.05 1775.03 1646.56 Q1772.62 1647.07 1770.14 1647.07 Q1763.94 1647.07 1760.3 1643.46 Q1756.69 1639.85 1756.69 1633.69 Q1756.69 1627.32 1760.12 1623.6 Q1763.57 1619.85 1769.4 1619.85 Q1774.63 1619.85 1777.66 1623.23 Q1780.72 1626.58 1780.72 1632.37 M1776.46 1631.12 Q1776.41 1627.62 1774.49 1625.54 Q1772.6 1623.46 1769.45 1623.46 Q1765.88 1623.46 1763.73 1625.47 Q1761.6 1627.49 1761.28 1631.14 L1776.46 1631.12 Z" fill="#000000" fill-rule="nonzero" fill-opacity="1" /><path clip-path="url(#clip120)" d="M1809.26 1630.75 L1809.26 1646.4 L1805 1646.4 L1805 1630.89 Q1805 1627.21 1803.57 1625.38 Q1802.13 1623.55 1799.26 1623.55 Q1795.81 1623.55 1793.82 1625.75 Q1791.83 1627.95 1791.83 1631.74 L1791.83 1646.4 L1787.55 1646.4 L1787.55 1620.47 L1791.83 1620.47 L1791.83 1624.5 Q1793.36 1622.16 1795.42 1621 Q1797.5 1619.85 1800.21 1619.85 Q1804.68 1619.85 1806.97 1622.62 Q1809.26 1625.38 1809.26 1630.75 Z" fill="#000000" fill-rule="nonzero" fill-opacity="1" /><path clip-path="url(#clip120)" d="M1821.97 1613.11 L1821.97 1620.47 L1830.74 1620.47 L1830.74 1623.78 L1821.97 1623.78 L1821.97 1637.86 Q1821.97 1641.03 1822.83 1641.93 Q1823.71 1642.83 1826.37 1642.83 L1830.74 1642.83 L1830.74 1646.4 L1826.37 1646.4 Q1821.44 1646.4 1819.56 1644.57 Q1817.69 1642.72 1817.69 1637.86 L1817.69 1623.78 L1814.56 1623.78 L1814.56 1620.47 L1817.69 1620.47 L1817.69 1613.11 L1821.97 1613.11 Z" fill="#000000" fill-rule="nonzero" fill-opacity="1" /><path clip-path="url(#clip120)" d="M1837.43 1640.52 L1842.32 1640.52 L1842.32 1644.5 L1838.52 1651.91 L1835.53 1651.91 L1837.43 1644.5 L1837.43 1640.52 Z" fill="#000000" fill-rule="nonzero" fill-opacity="1" /><path clip-path="url(#clip120)" d="M1892.55 1614.5 L1892.55 1619.43 Q1890.19 1617.23 1887.5 1616.14 Q1884.84 1615.05 1881.83 1615.05 Q1875.91 1615.05 1872.76 1618.69 Q1869.61 1622.3 1869.61 1629.15 Q1869.61 1635.98 1872.76 1639.61 Q1875.91 1643.23 1881.83 1643.23 Q1884.84 1643.23 1887.5 1642.14 Q1890.19 1641.05 1892.55 1638.85 L1892.55 1643.74 Q1890.09 1645.4 1887.34 1646.24 Q1884.61 1647.07 1881.55 1647.07 Q1873.71 1647.07 1869.19 1642.28 Q1864.68 1637.46 1864.68 1629.15 Q1864.68 1620.82 1869.19 1616.03 Q1873.71 1611.21 1881.55 1611.21 Q1884.65 1611.21 1887.39 1612.05 Q1890.14 1612.86 1892.55 1614.5 Z" fill="#000000" fill-rule="nonzero" fill-opacity="1" /><path clip-path="url(#clip120)" d="M1909.63 1623.46 Q1906.21 1623.46 1904.22 1626.14 Q1902.22 1628.8 1902.22 1633.46 Q1902.22 1638.11 1904.19 1640.8 Q1906.18 1643.46 1909.63 1643.46 Q1913.03 1643.46 1915.03 1640.77 Q1917.02 1638.09 1917.02 1633.46 Q1917.02 1628.85 1915.03 1626.17 Q1913.03 1623.46 1909.63 1623.46 M1909.63 1619.85 Q1915.19 1619.85 1918.36 1623.46 Q1921.53 1627.07 1921.53 1633.46 Q1921.53 1639.82 1918.36 1643.46 Q1915.19 1647.07 1909.63 1647.07 Q1904.05 1647.07 1900.88 1643.46 Q1897.73 1639.82 1897.73 1633.46 Q1897.73 1627.07 1900.88 1623.46 Q1904.05 1619.85 1909.63 1619.85 Z" fill="#000000" fill-rule="nonzero" fill-opacity="1" /><path clip-path="url(#clip120)" d="M1950.14 1630.75 L1950.14 1646.4 L1945.88 1646.4 L1945.88 1630.89 Q1945.88 1627.21 1944.45 1625.38 Q1943.01 1623.55 1940.14 1623.55 Q1936.69 1623.55 1934.7 1625.75 Q1932.71 1627.95 1932.71 1631.74 L1932.71 1646.4 L1928.43 1646.4 L1928.43 1620.47 L1932.71 1620.47 L1932.71 1624.5 Q1934.24 1622.16 1936.3 1621 Q1938.38 1619.85 1941.09 1619.85 Q1945.56 1619.85 1947.85 1622.62 Q1950.14 1625.38 1950.14 1630.75 Z" fill="#000000" fill-rule="nonzero" fill-opacity="1" /><path clip-path="url(#clip120)" d="M1962.85 1613.11 L1962.85 1620.47 L1971.62 1620.47 L1971.62 1623.78 L1962.85 1623.78 L1962.85 1637.86 Q1962.85 1641.03 1963.71 1641.93 Q1964.59 1642.83 1967.25 1642.83 L1971.62 1642.83 L1971.62 1646.4 L1967.25 1646.4 Q1962.32 1646.4 1960.44 1644.57 Q1958.57 1642.72 1958.57 1637.86 L1958.57 1623.78 L1955.44 1623.78 L1955.44 1620.47 L1958.57 1620.47 L1958.57 1613.11 L1962.85 1613.11 Z" fill="#000000" fill-rule="nonzero" fill-opacity="1" /><path clip-path="url(#clip120)" d="M1999.4 1632.37 L1999.4 1634.45 L1979.82 1634.45 Q1980.09 1638.85 1982.46 1641.17 Q1984.84 1643.46 1989.08 1643.46 Q1991.53 1643.46 1993.82 1642.86 Q1996.14 1642.25 1998.4 1641.05 L1998.4 1645.08 Q1996.11 1646.05 1993.71 1646.56 Q1991.3 1647.07 1988.82 1647.07 Q1982.62 1647.07 1978.98 1643.46 Q1975.37 1639.85 1975.37 1633.69 Q1975.37 1627.32 1978.8 1623.6 Q1982.25 1619.85 1988.08 1619.85 Q1993.31 1619.85 1996.34 1623.23 Q1999.4 1626.58 1999.4 1632.37 M1995.14 1631.12 Q1995.09 1627.62 1993.17 1625.54 Q1991.27 1623.46 1988.13 1623.46 Q1984.56 1623.46 1982.41 1625.47 Q1980.28 1627.49 1979.96 1631.14 L1995.14 1631.12 Z" fill="#000000" fill-rule="nonzero" fill-opacity="1" /><path clip-path="url(#clip120)" d="M2027.94 1630.75 L2027.94 1646.4 L2023.68 1646.4 L2023.68 1630.89 Q2023.68 1627.21 2022.25 1625.38 Q2020.81 1623.55 2017.94 1623.55 Q2014.49 1623.55 2012.5 1625.75 Q2010.51 1627.95 2010.51 1631.74 L2010.51 1646.4 L2006.23 1646.4 L2006.23 1620.47 L2010.51 1620.47 L2010.51 1624.5 Q2012.04 1622.16 2014.1 1621 Q2016.18 1619.85 2018.89 1619.85 Q2023.36 1619.85 2025.65 1622.62 Q2027.94 1625.38 2027.94 1630.75 Z" fill="#000000" fill-rule="nonzero" fill-opacity="1" /><path clip-path="url(#clip120)" d="M2040.65 1613.11 L2040.65 1620.47 L2049.42 1620.47 L2049.42 1623.78 L2040.65 1623.78 L2040.65 1637.86 Q2040.65 1641.03 2041.51 1641.93 Q2042.39 1642.83 2045.05 1642.83 L2049.42 1642.83 L2049.42 1646.4 L2045.05 1646.4 Q2040.12 1646.4 2038.24 1644.57 Q2036.37 1642.72 2036.37 1637.86 L2036.37 1623.78 L2033.24 1623.78 L2033.24 1620.47 L2036.37 1620.47 L2036.37 1613.11 L2040.65 1613.11 Z" fill="#000000" fill-rule="nonzero" fill-opacity="1" /><path clip-path="url(#clip120)" d="M2071.55 1621.24 L2071.55 1625.26 Q2069.75 1624.34 2067.8 1623.87 Q2065.86 1623.41 2063.77 1623.41 Q2060.6 1623.41 2059.01 1624.38 Q2057.43 1625.36 2057.43 1627.3 Q2057.43 1628.78 2058.57 1629.64 Q2059.7 1630.47 2063.13 1631.24 L2064.58 1631.56 Q2069.12 1632.53 2071.02 1634.31 Q2072.94 1636.07 2072.94 1639.24 Q2072.94 1642.86 2070.07 1644.96 Q2067.22 1647.07 2062.22 1647.07 Q2060.14 1647.07 2057.87 1646.65 Q2055.63 1646.26 2053.13 1645.45 L2053.13 1641.05 Q2055.49 1642.28 2057.78 1642.9 Q2060.07 1643.5 2062.32 1643.5 Q2065.33 1643.5 2066.95 1642.49 Q2068.57 1641.44 2068.57 1639.57 Q2068.57 1637.83 2067.39 1636.91 Q2066.23 1635.98 2062.27 1635.12 L2060.79 1634.78 Q2056.83 1633.94 2055.07 1632.23 Q2053.31 1630.49 2053.31 1627.49 Q2053.31 1623.83 2055.9 1621.84 Q2058.5 1619.85 2063.27 1619.85 Q2065.63 1619.85 2067.71 1620.19 Q2069.79 1620.54 2071.55 1621.24 Z" fill="#000000" fill-rule="nonzero" fill-opacity="1" /><path clip-path="url(#clip120)" d="M2105.02 1610.43 Q2101.92 1615.75 2100.42 1620.96 Q2098.91 1626.17 2098.91 1631.51 Q2098.91 1636.86 2100.42 1642.11 Q2101.95 1647.35 2105.02 1652.65 L2101.32 1652.65 Q2097.85 1647.21 2096.11 1641.95 Q2094.4 1636.7 2094.4 1631.51 Q2094.4 1626.35 2096.11 1621.12 Q2097.83 1615.89 2101.32 1610.43 L2105.02 1610.43 Z" fill="#000000" fill-rule="nonzero" fill-opacity="1" /><path clip-path="url(#clip120)" d="M2112.94 1611.84 L2117.64 1611.84 L2117.64 1632.83 Q2117.64 1638.39 2119.65 1640.84 Q2121.67 1643.27 2126.18 1643.27 Q2130.67 1643.27 2132.69 1640.84 Q2134.7 1638.39 2134.7 1632.83 L2134.7 1611.84 L2139.4 1611.84 L2139.4 1633.41 Q2139.4 1640.17 2136.04 1643.62 Q2132.71 1647.07 2126.18 1647.07 Q2119.63 1647.07 2116.27 1643.62 Q2112.94 1640.17 2112.94 1633.41 L2112.94 1611.84 Z" fill="#000000" fill-rule="nonzero" fill-opacity="1" /><path clip-path="url(#clip120)" d="M2168.89 1612.97 L2168.89 1617.53 Q2166.23 1616.26 2163.87 1615.63 Q2161.51 1615.01 2159.31 1615.01 Q2155.49 1615.01 2153.4 1616.49 Q2151.34 1617.97 2151.34 1620.7 Q2151.34 1622.99 2152.71 1624.17 Q2154.1 1625.33 2157.94 1626.05 L2160.76 1626.63 Q2166 1627.62 2168.47 1630.15 Q2170.97 1632.65 2170.97 1636.86 Q2170.97 1641.88 2167.59 1644.48 Q2164.24 1647.07 2157.73 1647.07 Q2155.28 1647.07 2152.5 1646.51 Q2149.75 1645.96 2146.78 1644.87 L2146.78 1640.05 Q2149.63 1641.65 2152.36 1642.46 Q2155.09 1643.27 2157.73 1643.27 Q2161.74 1643.27 2163.91 1641.7 Q2166.09 1640.12 2166.09 1637.21 Q2166.09 1634.66 2164.51 1633.23 Q2162.96 1631.79 2159.4 1631.07 L2156.55 1630.52 Q2151.32 1629.48 2148.98 1627.25 Q2146.64 1625.03 2146.64 1621.07 Q2146.64 1616.49 2149.86 1613.85 Q2153.1 1611.21 2158.77 1611.21 Q2161.2 1611.21 2163.73 1611.65 Q2166.25 1612.09 2168.89 1612.97 Z" fill="#000000" fill-rule="nonzero" fill-opacity="1" /><path clip-path="url(#clip120)" d="M2190.69 1616.44 L2184.35 1633.64 L2197.06 1633.64 L2190.69 1616.44 M2188.06 1611.84 L2193.36 1611.84 L2206.53 1646.4 L2201.67 1646.4 L2198.52 1637.53 L2182.94 1637.53 L2179.79 1646.4 L2174.86 1646.4 L2188.06 1611.84 Z" fill="#000000" fill-rule="nonzero" fill-opacity="1" /><path clip-path="url(#clip120)" d="M2236.62 1614.5 L2236.62 1619.43 Q2234.26 1617.23 2231.57 1616.14 Q2228.91 1615.05 2225.9 1615.05 Q2219.98 1615.05 2216.83 1618.69 Q2213.68 1622.3 2213.68 1629.15 Q2213.68 1635.98 2216.83 1639.61 Q2219.98 1643.23 2225.9 1643.23 Q2228.91 1643.23 2231.57 1642.14 Q2234.26 1641.05 2236.62 1638.85 L2236.62 1643.74 Q2234.17 1645.4 2231.41 1646.24 Q2228.68 1647.07 2225.63 1647.07 Q2217.78 1647.07 2213.26 1642.28 Q2208.75 1637.46 2208.75 1629.15 Q2208.75 1620.82 2213.26 1616.03 Q2217.78 1611.21 2225.63 1611.21 Q2228.73 1611.21 2231.46 1612.05 Q2234.21 1612.86 2236.62 1614.5 Z" fill="#000000" fill-rule="nonzero" fill-opacity="1" /><path clip-path="url(#clip120)" d="M2243.84 1611.84 L2265.69 1611.84 L2265.69 1615.77 L2248.52 1615.77 L2248.52 1626 L2264.98 1626 L2264.98 1629.94 L2248.52 1629.94 L2248.52 1642.46 L2266.11 1642.46 L2266.11 1646.4 L2243.84 1646.4 L2243.84 1611.84 Z" fill="#000000" fill-rule="nonzero" fill-opacity="1" /><path clip-path="url(#clip120)" d="M2286.53 1631.51 L2299 1631.51 L2299 1635.31 L2286.53 1635.31 L2286.53 1631.51 Z" fill="#000000" fill-rule="nonzero" fill-opacity="1" /><path clip-path="url(#clip120)" d="M2344.61 1641.47 L2344.61 1632.18 L2336.97 1632.18 L2336.97 1628.34 L2349.24 1628.34 L2349.24 1643.18 Q2346.53 1645.1 2343.26 1646.1 Q2340 1647.07 2336.3 1647.07 Q2328.19 1647.07 2323.61 1642.35 Q2319.05 1637.6 2319.05 1629.15 Q2319.05 1620.68 2323.61 1615.96 Q2328.19 1611.21 2336.3 1611.21 Q2339.68 1611.21 2342.71 1612.05 Q2345.76 1612.88 2348.33 1614.5 L2348.33 1619.48 Q2345.74 1617.28 2342.82 1616.17 Q2339.91 1615.05 2336.69 1615.05 Q2330.35 1615.05 2327.15 1618.6 Q2323.98 1622.14 2323.98 1629.15 Q2323.98 1636.14 2327.15 1639.68 Q2330.35 1643.23 2336.69 1643.23 Q2339.17 1643.23 2341.11 1642.81 Q2343.06 1642.37 2344.61 1641.47 Z" fill="#000000" fill-rule="nonzero" fill-opacity="1" /><path clip-path="url(#clip120)" d="M2369.37 1633.36 Q2364.21 1633.36 2362.22 1634.55 Q2360.23 1635.73 2360.23 1638.57 Q2360.23 1640.84 2361.71 1642.18 Q2363.22 1643.5 2365.79 1643.5 Q2369.33 1643.5 2371.46 1641 Q2373.61 1638.48 2373.61 1634.31 L2373.61 1633.36 L2369.37 1633.36 M2377.87 1631.61 L2377.87 1646.4 L2373.61 1646.4 L2373.61 1642.46 Q2372.15 1644.82 2369.98 1645.96 Q2367.8 1647.07 2364.65 1647.07 Q2360.67 1647.07 2358.31 1644.85 Q2355.97 1642.6 2355.97 1638.85 Q2355.97 1634.48 2358.89 1632.25 Q2361.83 1630.03 2367.64 1630.03 L2373.61 1630.03 L2373.61 1629.61 Q2373.61 1626.67 2371.67 1625.08 Q2369.74 1623.46 2366.25 1623.46 Q2364.03 1623.46 2361.92 1623.99 Q2359.81 1624.52 2357.87 1625.59 L2357.87 1621.65 Q2360.21 1620.75 2362.41 1620.31 Q2364.61 1619.85 2366.69 1619.85 Q2372.31 1619.85 2375.09 1622.76 Q2377.87 1625.68 2377.87 1631.61 Z" fill="#000000" fill-rule="nonzero" fill-opacity="1" /><path clip-path="url(#clip120)" d="M2386.64 1610.38 L2390.9 1610.38 L2390.9 1646.4 L2386.64 1646.4 L2386.64 1610.38 Z" fill="#000000" fill-rule="nonzero" fill-opacity="1" /><path clip-path="url(#clip120)" d="M2396.76 1620.47 L2401.27 1620.47 L2409.37 1642.23 L2417.48 1620.47 L2421.99 1620.47 L2412.27 1646.4 L2406.48 1646.4 L2396.76 1620.47 Z" fill="#000000" fill-rule="nonzero" fill-opacity="1" /><path clip-path="url(#clip120)" d="M2450.05 1632.37 L2450.05 1634.45 L2430.46 1634.45 Q2430.74 1638.85 2433.1 1641.17 Q2435.49 1643.46 2439.72 1643.46 Q2442.18 1643.46 2444.47 1642.86 Q2446.78 1642.25 2449.05 1641.05 L2449.05 1645.08 Q2446.76 1646.05 2444.35 1646.56 Q2441.94 1647.07 2439.47 1647.07 Q2433.26 1647.07 2429.63 1643.46 Q2426.02 1639.85 2426.02 1633.69 Q2426.02 1627.32 2429.44 1623.6 Q2432.89 1619.85 2438.73 1619.85 Q2443.96 1619.85 2446.99 1623.23 Q2450.05 1626.58 2450.05 1632.37 M2445.79 1631.12 Q2445.74 1627.62 2443.82 1625.54 Q2441.92 1623.46 2438.77 1623.46 Q2435.21 1623.46 2433.05 1625.47 Q2430.93 1627.49 2430.6 1631.14 L2445.79 1631.12 Z" fill="#000000" fill-rule="nonzero" fill-opacity="1" /><path clip-path="url(#clip120)" d="M2473.56 1621.24 L2473.56 1625.26 Q2471.76 1624.34 2469.81 1623.87 Q2467.87 1623.41 2465.79 1623.41 Q2462.61 1623.41 2461.02 1624.38 Q2459.44 1625.36 2459.44 1627.3 Q2459.44 1628.78 2460.58 1629.64 Q2461.71 1630.47 2465.14 1631.24 L2466.6 1631.56 Q2471.13 1632.53 2473.03 1634.31 Q2474.95 1636.07 2474.95 1639.24 Q2474.95 1642.86 2472.08 1644.96 Q2469.24 1647.07 2464.24 1647.07 Q2462.15 1647.07 2459.88 1646.65 Q2457.64 1646.26 2455.14 1645.45 L2455.14 1641.05 Q2457.5 1642.28 2459.79 1642.9 Q2462.08 1643.5 2464.33 1643.5 Q2467.34 1643.5 2468.96 1642.49 Q2470.58 1641.44 2470.58 1639.57 Q2470.58 1637.83 2469.4 1636.91 Q2468.24 1635.98 2464.28 1635.12 L2462.8 1634.78 Q2458.84 1633.94 2457.08 1632.23 Q2455.32 1630.49 2455.32 1627.49 Q2455.32 1623.83 2457.92 1621.84 Q2460.51 1619.85 2465.28 1619.85 Q2467.64 1619.85 2469.72 1620.19 Q2471.8 1620.54 2473.56 1621.24 Z" fill="#000000" fill-rule="nonzero" fill-opacity="1" /><path clip-path="url(#clip120)" d="M2485.95 1613.11 L2485.95 1620.47 L2494.72 1620.47 L2494.72 1623.78 L2485.95 1623.78 L2485.95 1637.86 Q2485.95 1641.03 2486.8 1641.93 Q2487.68 1642.83 2490.35 1642.83 L2494.72 1642.83 L2494.72 1646.4 L2490.35 1646.4 Q2485.42 1646.4 2483.54 1644.57 Q2481.67 1642.72 2481.67 1637.86 L2481.67 1623.78 L2478.54 1623.78 L2478.54 1620.47 L2481.67 1620.47 L2481.67 1613.11 L2485.95 1613.11 Z" fill="#000000" fill-rule="nonzero" fill-opacity="1" /><path clip-path="url(#clip120)" d="M2510.37 1623.46 Q2506.94 1623.46 2504.95 1626.14 Q2502.96 1628.8 2502.96 1633.46 Q2502.96 1638.11 2504.93 1640.8 Q2506.92 1643.46 2510.37 1643.46 Q2513.77 1643.46 2515.76 1640.77 Q2517.75 1638.09 2517.75 1633.46 Q2517.75 1628.85 2515.76 1626.17 Q2513.77 1623.46 2510.37 1623.46 M2510.37 1619.85 Q2515.92 1619.85 2519.1 1623.46 Q2522.27 1627.07 2522.27 1633.46 Q2522.27 1639.82 2519.1 1643.46 Q2515.92 1647.07 2510.37 1647.07 Q2504.79 1647.07 2501.62 1643.46 Q2498.47 1639.82 2498.47 1633.46 Q2498.47 1627.07 2501.62 1623.46 Q2504.79 1619.85 2510.37 1619.85 Z" fill="#000000" fill-rule="nonzero" fill-opacity="1" /><path clip-path="url(#clip120)" d="M2550.88 1630.75 L2550.88 1646.4 L2546.62 1646.4 L2546.62 1630.89 Q2546.62 1627.21 2545.18 1625.38 Q2543.75 1623.55 2540.88 1623.55 Q2537.43 1623.55 2535.44 1625.75 Q2533.45 1627.95 2533.45 1631.74 L2533.45 1646.4 L2529.17 1646.4 L2529.17 1620.47 L2533.45 1620.47 L2533.45 1624.5 Q2534.98 1622.16 2537.04 1621 Q2539.12 1619.85 2541.83 1619.85 Q2546.29 1619.85 2548.59 1622.62 Q2550.88 1625.38 2550.88 1630.75 Z" fill="#000000" fill-rule="nonzero" fill-opacity="1" /><path clip-path="url(#clip120)" d="M2558.7 1610.43 L2562.41 1610.43 Q2565.88 1615.89 2567.59 1621.12 Q2569.33 1626.35 2569.33 1631.51 Q2569.33 1636.7 2567.59 1641.95 Q2565.88 1647.21 2562.41 1652.65 L2558.7 1652.65 Q2561.78 1647.35 2563.29 1642.11 Q2564.81 1636.86 2564.81 1631.51 Q2564.81 1626.17 2563.29 1620.96 Q2561.78 1615.75 2558.7 1610.43 Z" fill="#000000" fill-rule="nonzero" fill-opacity="1" /></svg>
